# Blender v2.92.0 OBJ File: 'mailslot.blend'
# www.blender.org
mtllib mailslot.mtl
o Mailslot
v 0.293857 0.146929 0.000000
v 0.293857 0.146929 0.088157
v 0.293857 0.000000 0.000000
v 0.293857 0.000000 0.088157
v 0.000000 0.146929 0.000000
v 0.000000 0.000000 0.000000
v 0.000000 0.146929 0.088157
v 0.000000 0.000000 0.088157
v 0.258594 0.146929 0.026447
v 0.035263 0.146929 0.026447
v 0.035263 0.146929 0.061710
v 0.258594 0.146929 0.061710
v 0.258594 0.029386 0.026447
v 0.258594 0.029386 0.061710
v 0.035263 0.029386 0.061710
v 0.035263 0.029386 0.026447
vn 1.0000 0.0000 0.0000
vn 0.0000 0.0000 -1.0000
vn -1.0000 0.0000 0.0000
vn 0.0000 0.0000 1.0000
vn 0.0000 1.0000 0.0000
vn 0.0000 -1.0000 0.0000
usemtl mailslot
s off
f 1//1 2//1 3//1
f 3//1 2//1 4//1
f 5//2 1//2 6//2
f 6//2 1//2 3//2
f 7//3 5//3 8//3
f 8//3 5//3 6//3
f 2//4 7//4 4//4
f 4//4 7//4 8//4
f 9//5 1//5 10//5
f 10//5 1//5 5//5
f 10//5 5//5 11//5
f 11//5 5//5 7//5
f 11//5 7//5 12//5
f 12//5 7//5 2//5
f 12//5 2//5 9//5
f 9//5 2//5 1//5
f 8//6 6//6 4//6
f 4//6 6//6 3//6
f 13//3 14//3 9//3
f 9//3 14//3 12//3
f 14//2 15//2 12//2
f 12//2 15//2 11//2
f 15//1 16//1 11//1
f 11//1 16//1 10//1
f 16//4 13//4 10//4
f 10//4 13//4 9//4
f 16//5 15//5 13//5
f 13//5 15//5 14//5
